# 3ds Max Wavefront OBJ Exporter v0.97b - (c)2007 guruware
# File Created: 27.11.2019 09:30:51

mtllib w1.mtl

#
# object 383b0a8_obj
#

v  -1.5337 12.5739 1.2549
v  -1.5339 12.8476 1.1159
v  -0.8026 11.9799 0.9869
v  -0.8440 12.3095 0.8612
v  -0.6939 12.1841 0.8080
v  -1.8634 14.1920 1.7400
v  -2.1139 13.7191 1.3582
v  -2.0575 14.0788 1.6873
v  -2.2985 13.8721 1.7545
v  -2.3997 13.8119 1.4521
v  -2.6400 13.8422 1.6251
v  -2.4574 13.9266 1.8053
v  -4.1323 14.1862 2.4086
v  -4.1443 14.0506 2.5545
v  -5.6208 14.1845 3.3385
v  -5.6592 14.0037 3.2992
v  -7.5696 14.1375 4.0537
v  -7.5053 14.3855 4.0534
v  -8.1491 14.4979 4.3396
v  -2.4243 13.4417 1.5649
v  -1.8311 12.4139 2.3604
v  -2.1130 13.1238 1.4735
v  -1.7154 12.3928 2.2459
v  -1.0531 11.3742 2.4429
v  -1.1243 11.3449 2.5929
v  -0.9260 11.0691 2.5371
v  -3.3614 12.8477 2.6329
v  -2.7096 13.6776 1.7087
v  -3.4823 12.8792 2.7142
v  -3.2197 11.3622 3.2398
v  -3.4545 11.3950 3.3900
v  -3.2020 10.9991 3.4591
v  -3.2997 12.8833 2.6949
v  -3.4206 12.9140 2.7767
v  -3.1719 11.3997 3.2999
v  -3.4070 11.4329 3.4490
v  -3.4276 12.9126 2.7700
v  -4.1879 14.0105 2.4024
v  -5.7415 14.1439 3.2559
v  -7.1766 14.5117 3.9090
v  -3.3064 12.8812 2.6876
v  -1.8429 12.3793 2.3256
v  -1.7759 12.3541 2.2221
v  -1.1101 11.3344 2.4130
v  -1.1813 11.3052 2.5592
v  -2.0254 13.9943 1.8938
v  -1.8571 14.1423 1.9131
v  -1.5398 14.1526 1.7484
v  -1.5342 14.1220 1.8534
v  -1.2278 13.9703 1.7416
v  -1.7907 13.8572 1.6320
v  -1.7814 13.8053 1.8084
v  -1.7991 13.6263 1.4171
v  -1.7288 13.6066 1.5868
v  -1.3324 12.9775 1.3985
v  -1.3816 12.9962 1.2182
v  -0.7317 12.5570 0.9881
v  -0.7249 12.4894 1.2541
v  -0.5236 12.4613 0.9254
v  -0.5436 12.3967 1.2355
v  -0.3112 12.2551 1.2649
v  -0.3473 12.2871 0.7324
v  -2.1092 13.5588 1.8842
v  -1.8748 13.3496 1.6947
v  -1.4538 12.7997 1.4584
v  -0.8225 12.1994 1.2712
v  -0.7089 12.0853 1.2394
v  -0.6979 11.8711 1.3656
v  -1.4729 13.9595 1.8016
v  -1.4784 13.9898 1.6969
v  -7.5999 14.1433 4.0060
v  -2.0314 13.4099 1.2753
v  -0.6637 11.8447 0.6172
v  -2.2939 13.6572 1.8425
v  -2.5357 13.7045 1.9020
v  -4.1463 13.8800 2.5010
v  -5.7783 13.9897 3.1767
v  -7.5356 14.3911 4.0067
v  -0.7804 11.2125 1.4299
# 79 vertices

vn -0.6637 -0.5516 -0.5052
vn -0.5938 -0.3586 -0.7203
vn -0.7018 -0.4147 -0.5792
vn -0.5574 -0.3560 -0.7501
vn -0.5620 -0.3554 -0.7469
vn 0.1230 0.4416 -0.8887
vn 0.1340 0.6474 -0.7503
vn -0.3599 0.6599 -0.6596
vn -0.1737 0.8860 -0.4299
vn 0.1186 0.9655 -0.2319
vn 0.0086 0.9307 -0.3658
vn 0.0830 0.8867 -0.4549
vn 0.3567 0.7009 0.6176
vn 0.3843 0.6409 0.6645
vn 0.3917 -0.2398 0.8883
vn 0.3821 -0.2734 0.8828
vn 0.3665 -0.1000 0.9250
vn 0.3660 -0.0937 0.9259
vn 0.3896 -0.0998 0.9156
vn -0.0956 -0.5960 0.7973
vn 0.6150 0.6409 0.4594
vn 0.2199 -0.0876 0.9716
vn 0.6024 0.6280 0.4927
vn 0.7288 0.5139 0.4525
vn 0.7321 0.5131 0.4482
vn 0.7647 0.4583 0.4529
vn -0.6049 -0.2910 -0.7412
vn -0.5859 -0.3521 -0.7299
vn -0.5571 -0.2332 -0.7970
vn -0.5804 -0.3548 -0.7330
vn -0.5332 -0.4062 -0.7421
vn -0.5325 -0.4014 -0.7452
vn -0.5232 -0.4591 -0.7180
vn 0.6411 0.3631 0.6761
vn 0.6386 0.3661 0.6769
vn 0.5849 0.3949 0.7084
vn 0.5792 0.3778 0.7224
vn 0.5410 0.3162 0.7793
vn 0.5393 0.3197 0.7791
vn 0.5424 0.2748 0.7939
vn -0.4532 -0.5490 -0.7023
vn -0.4178 -0.4702 -0.7774
vn -0.4441 -0.5455 -0.7108
vn -0.4496 -0.4588 -0.7664
vn -0.4021 -0.4047 -0.8213
vn -0.4629 -0.4529 -0.7620
vn -0.6164 0.7746 0.1414
vn -0.7405 0.5350 0.4067
vn -0.7344 0.5608 0.3824
vn -0.7649 -0.0398 0.6430
vn -0.7762 -0.0104 0.6305
vn -0.6468 -0.2894 0.7056
vn 0.5275 -0.8495 -0.0097
vn 0.7168 -0.6024 -0.3511
vn 0.7290 -0.5689 -0.3805
vn 0.8228 -0.2006 -0.5318
vn 0.8245 -0.2063 -0.5269
vn 0.8282 -0.2595 -0.4966
vn -0.6830 -0.5077 -0.5251
vn -0.7337 -0.5907 -0.3358
vn -0.7368 -0.5884 -0.3330
vn -0.6778 -0.5864 -0.4436
vn -0.6750 -0.5874 -0.4464
vn -0.6310 -0.6417 -0.4359
vn -0.3582 -0.6919 -0.6269
vn -0.3348 -0.4961 -0.8011
vn -0.3378 -0.5275 -0.7795
vn -0.3128 -0.3909 -0.8656
vn -0.3102 -0.3870 -0.8683
vn -0.5344 0.7501 0.3897
vn -0.5679 0.7437 0.3526
vn -0.5378 0.7478 0.3893
vn -0.2910 0.9036 0.3144
vn -0.3258 0.9055 0.2719
vn 0.2918 0.9223 0.2533
vn 0.2944 0.9215 0.2535
vn 0.4959 0.8403 0.2190
vn 0.9987 0.0101 -0.0496
vn 0.9726 0.1918 -0.1315
vn 0.8453 0.4842 -0.2259
vn 0.7972 0.5415 -0.2669
vn 0.6915 0.7163 -0.0937
vn 0.6824 0.7224 -0.1113
vn 0.5406 0.8226 0.1764
vn 0.5535 0.8103 0.1923
vn 0.5785 0.8072 0.1177
vn 0.4765 0.8541 0.2086
vn 0.5922 0.7977 0.1141
vn 0.7003 0.7138 -0.0045
vn 0.3216 -0.3130 0.8937
vn 0.2112 -0.0587 0.9757
vn 0.5826 -0.1676 0.7953
vn 0.5597 0.0185 0.8285
vn 0.4048 0.0475 0.9132
vn 0.3776 0.0333 0.9254
vn 0.2008 0.0030 0.9796
vn 0.1985 -0.0449 0.9791
vn 0.0249 0.0235 0.9994
vn -0.0835 0.2275 0.9702
vn -0.1475 0.1998 0.9687
vn -0.2589 0.4805 0.8379
vn -0.8779 -0.1565 0.4525
vn -0.8096 -0.2558 0.5283
vn -0.8212 -0.2317 0.5215
vn -0.3737 -0.2358 0.8971
vn -0.3634 -0.2416 0.8998
vn -0.2666 -0.3717 0.8893
vn 0.4246 -0.8623 -0.2760
vn 0.4244 -0.8626 -0.2753
vn 0.2266 -0.9321 -0.2825
vn 0.2320 -0.9310 -0.2818
vn -0.0252 -0.9606 -0.2767
vn -0.4246 0.8623 0.2760
vn -0.2266 0.9321 0.2825
vn -0.4244 0.8626 0.2753
vn -0.2320 0.9310 0.2818
vn 0.0252 0.9606 0.2767
vn 0.5583 -0.4397 -0.7035
vn 0.4623 -0.1894 -0.8663
vn 0.4775 -0.2192 -0.8508
vn 0.4521 0.0182 -0.8918
vn 0.4516 0.0226 -0.8919
vn 0.4961 -0.0606 -0.8662
vn 0.0938 0.9937 0.0612
vn 0.2984 0.9516 -0.0738
vn 0.2611 0.9641 -0.0486
vn 0.4532 0.8727 -0.1816
vn 0.1910 0.3608 -0.9129
vn 0.1319 0.3429 -0.9301
vn 0.0976 0.3335 -0.9377
vn 0.3329 0.4184 -0.8451
vn 0.2596 0.4800 -0.8380
vn 0.2109 0.3707 -0.9045
vn 0.1253 0.4688 -0.8744
vn 0.1156 0.4685 -0.8759
vn -0.0068 0.4663 -0.8846
vn -0.0031 0.4322 -0.9018
vn -0.1614 0.4879 -0.8578
vn -0.2122 0.4524 -0.8662
vn -0.3229 0.4952 -0.8065
vn -0.3147 0.4435 -0.8392
vn 0.2411 -0.2108 0.9473
vn 0.1761 -0.2436 0.9537
vn 0.1975 -0.2291 0.9532
vn 0.1444 -0.2638 0.9537
vn 0.0006 -0.1166 0.9932
vn 0.0180 0.2810 0.9595
vn 0.1313 0.3601 0.9236
vn 0.3489 0.2829 0.8934
vn 0.3291 0.2771 0.9027
vn 0.3950 -0.2839 0.8737
vn 0.4044 -0.2780 0.8713
vn -0.0527 -0.9865 0.1553
vn -0.0763 -0.9796 0.1859
vn -0.4003 0.0805 -0.9128
vn -0.3945 0.1048 -0.9129
vn -0.4571 0.1210 -0.8812
vn -0.3380 0.2781 -0.8991
vn -0.3300 0.4857 -0.8095
vn -0.3294 0.3138 -0.8905
vn -0.3425 0.4664 -0.8156
vn -0.3942 -0.6073 -0.6898
vn -0.3814 -0.6613 -0.6459
vn -0.2217 -0.9302 0.2925
vn -0.1567 -0.8920 0.4241
vn -0.2569 -0.7013 0.6649
vn -0.3420 -0.7215 0.6020
vn -0.2634 -0.6127 0.7451
vn -0.2725 -0.5974 0.7542
vn -0.2360 -0.6031 0.7619
vn 0.3881 -0.8780 0.2801
vn -0.5231 -0.6919 0.4976
vn -0.8190 -0.5333 0.2116
vn -0.9275 -0.3562 -0.1138
vn -0.9967 -0.0662 -0.0468
vn -0.9962 -0.0762 -0.0429
vn -0.8193 -0.5581 -0.1314
vn -0.7655 -0.5816 -0.2752
vn -0.8366 -0.4173 -0.3550
vn -0.6011 -0.2117 -0.7706
vn -0.5057 -0.0743 -0.8595
vn -0.4857 -0.2251 -0.8447
vn -0.5429 -0.2003 -0.8156
vn -0.4551 0.1598 -0.8760
vn -0.4573 0.1978 -0.8670
vn -0.0622 0.9275 -0.3687
vn -0.0240 0.9106 -0.4126
vn 0.3476 0.1900 0.9182
vn -0.0012 0.9609 0.2767
vn -0.0089 0.9923 0.1239
vn 0.1738 0.9848 0.0041
# 191 vertex normals

vt 0.3490 0.1725 1.0000
vt 0.3412 0.1922 1.0000
vt 0.3176 0.0863 1.0000
vt 0.2980 0.1098 1.0000
vt 0.2941 0.0980 1.0000
vt 0.3216 0.3608 1.0000
vt 0.3608 0.3137 1.0000
vt 0.3569 0.3529 1.0000
vt 0.3882 0.3373 1.0000
vt 0.3922 0.3176 1.0000
vt 0.4196 0.3255 1.0000
vt 0.4078 0.3412 1.0000
vt 0.6157 0.3216 1.0000
vt 0.6157 0.3255 1.0000
vt 0.7922 0.2392 1.0000
vt 0.8000 0.2392 1.0000
vt 0.8941 0.0745 1.0000
vt 0.8745 0.0706 1.0000
vt 0.9137 0.0431 1.0000
vt 0.3961 0.2863 1.0000
vt 0.4745 0.1569 1.0000
vt 0.3647 0.2667 1.0000
vt 0.4588 0.1529 1.0000
vt 0.4863 0.0392 1.0000
vt 0.5137 0.0471 1.0000
vt 0.5098 0.0078 1.0000
vt 0.5804 0.2078 1.0000
vt 0.4275 0.3137 1.0000
vt 0.5922 0.2157 1.0000
vt 0.6510 0.0588 1.0000
vt 0.6902 0.0627 1.0000
vt 0.7020 0.0118 1.0000
vt 0.5765 0.2118 1.0000
vt 0.5961 0.2196 1.0000
vt 0.6941 0.0588 1.0000
vt 0.5922 0.2196 1.0000
vt 0.6157 0.3176 1.0000
vt 0.7843 0.2275 1.0000
vt 0.8667 0.0588 1.0000
vt 0.6471 0.0588 1.0000
vt 0.3843 0.2275 1.0000
vt 0.4706 0.1569 1.0000
vt 0.4902 0.0353 1.0000
vt 0.5137 0.0431 1.0000
vt 0.4745 0.1608 1.0000
vt 0.3686 0.3686 1.0000
vt 0.3255 0.3804 1.0000
vt 0.2941 0.3529 1.0000
vt 0.2941 0.3647 1.0000
vt 0.2627 0.3255 1.0000
vt 0.3255 0.3294 1.0000
vt 0.3137 0.3098 1.0000
vt 0.3373 0.2863 1.0000
vt 0.3216 0.2941 1.0000
vt 0.3137 0.2039 1.0000
vt 0.3176 0.2000 1.0000
vt 0.2824 0.1412 1.0000
vt 0.2667 0.1373 1.0000
vt 0.2706 0.1216 1.0000
vt 0.2588 0.1216 1.0000
vt 0.2275 0.0941 1.0000
vt 0.2392 0.0863 1.0000
vt 0.3098 0.2039 1.0000
vt 0.3176 0.1961 1.0000
vt 0.2902 0.1255 1.0000
vt 0.2824 0.1098 1.0000
vt 0.2275 0.0902 1.0000
vt 0.2980 0.3176 1.0000
vt 0.2902 0.3333 1.0000
vt 0.8980 0.0784 1.0000
vt 0.2627 0.0706 1.0000
vt 0.2941 0.3490 1.0000
vt 0.3255 0.3608 1.0000
vt 0.8980 0.0824 1.0000
vt 0.2980 0.0902 1.0000
vt 0.4039 0.0667 1.0000
# 76 texture coords

o 383b0a8_obj
g 383b0a8_obj
usemtl Material__41
s 1
f 1/1/1 2/2/2 3/3/3 
f 2/2/2 4/4/4 3/3/3 
f 3/3/3 4/4/4 5/5/5 
f 6/6/6 7/7/7 8/8/8 
f 8/8/8 7/7/7 9/9/9 
s 2
f 7/7/7 10/10/10 9/9/9 
f 10/10/10 11/11/11 9/9/9 
f 9/9/9 11/11/11 12/12/12 
f 11/11/11 13/13/13 12/12/12 
s 1
f 12/12/12 13/13/13 14/14/14 
f 13/13/13 15/15/15 14/14/14 
s 2
f 14/14/14 15/15/15 16/16/16 
f 16/16/16 15/15/15 17/17/17 
f 15/15/15 18/18/18 17/17/17 
f 17/17/17 18/18/18 19/19/19 
s 1
f 20/20/20 21/21/21 22/22/22 
f 22/22/22 21/21/21 23/23/23 
f 23/23/23 21/21/21 24/24/24 
f 21/21/21 25/25/25 24/24/24 
f 24/24/24 25/25/25 26/26/26 
f 20/20/27 27/27/28 28/28/29 
f 28/28/29 27/27/28 29/29/30 
f 27/27/28 30/30/31 29/29/30 
f 29/29/30 30/30/31 31/31/32 
f 30/30/31 32/32/33 31/31/32 
f 20/20/34 28/28/35 33/33/36 
f 28/28/35 34/34/37 33/33/36 
f 33/33/36 34/34/37 35/30/38 
f 34/34/37 36/35/39 35/30/38 
f 35/30/38 36/35/39 32/32/40 
f 28/28/41 37/36/42 38/37/43 
f 38/37/43 37/36/42 39/38/44 
f 37/36/42 36/35/45 39/38/44 
f 39/38/44 36/35/45 40/39/46 
f 28/28/47 29/29/48 37/36/49 
f 29/29/48 31/31/50 37/36/49 
f 37/36/49 31/31/50 36/35/51 
f 31/31/50 32/32/52 36/35/51 
f 20/20/53 41/27/54 27/27/55 
s 2
f 41/27/54 35/40/56 27/27/55 
f 27/27/55 35/40/56 30/30/57 
f 35/40/56 32/32/58 30/30/57 
s 1
f 20/20/27 22/41/59 42/42/60 
f 22/41/59 43/23/61 42/42/60 
f 43/23/61 44/43/62 42/42/60 
f 42/42/60 44/43/62 45/44/63 
f 44/43/62 26/26/64 45/44/63 
f 20/20/65 21/45/66 41/27/67 
f 21/45/66 25/25/68 41/27/67 
f 41/27/67 25/25/68 35/40/69 
f 9/9/70 46/46/71 8/8/72 
f 8/8/72 46/46/71 6/6/73 
f 46/46/71 47/47/74 6/6/73 
s 2
f 6/6/73 47/47/74 48/48/75 
f 47/47/74 49/49/76 48/48/75 
f 48/48/75 49/49/76 50/50/77 
s 1
f 51/51/78 52/52/79 53/53/80 
f 52/52/79 54/54/81 53/53/80 
f 54/54/81 55/55/82 53/53/80 
f 53/53/80 55/55/82 56/56/83 
f 56/56/83 55/55/82 57/57/84 
f 55/55/82 58/58/85 57/57/84 
f 57/57/84 58/58/85 59/59/86 
f 58/58/85 60/60/87 59/59/86 
f 60/60/87 61/61/88 59/59/86 
f 59/59/86 61/61/88 62/62/89 
f 52/51/90 63/7/91 54/53/92 
f 63/7/91 64/22/93 54/53/92 
f 54/53/92 64/22/93 55/63/94 
f 64/22/93 65/64/95 55/63/94 
f 55/63/94 65/64/95 58/58/96 
f 65/64/95 66/65/97 58/58/96 
f 58/58/96 66/65/97 60/60/98 
f 66/65/97 67/66/99 60/60/98 
f 60/60/98 67/66/99 61/67/100 
f 67/66/99 68/62/101 61/67/100 
f 20/20/102 42/42/103 21/45/104 
f 42/42/103 45/44/105 21/45/104 
f 21/45/104 45/44/105 25/25/106 
f 45/44/105 26/26/107 25/25/106 
f 52/52/108 51/51/109 69/68/110 
f 51/51/109 70/69/111 69/68/110 
f 69/68/110 70/69/111 50/50/112 
f 52/52/113 69/68/114 51/51/115 
f 51/51/115 69/68/114 70/69/116 
f 69/68/114 50/50/117 70/69/116 
f 22/41/118 23/23/119 43/23/120 
f 23/23/119 24/24/121 43/23/120 
f 43/23/120 24/24/121 44/43/122 
f 24/24/121 26/26/123 44/43/122 
f 16/16/124 71/70/125 17/17/126 
f 71/70/125 19/19/127 17/17/126 
s 4
f 50/50/128 70/69/129 48/48/130 
f 48/48/130 70/69/129 6/6/6 
f 70/69/129 51/51/131 6/6/6 
f 6/6/6 51/51/131 7/7/7 
f 51/51/131 53/53/132 7/7/7 
f 7/7/7 53/53/132 72/22/133 
f 53/53/132 56/56/134 72/22/133 
f 72/22/133 56/56/134 2/2/135 
f 56/56/134 57/57/136 2/2/135 
f 2/2/135 57/57/136 4/4/137 
f 57/57/136 59/59/138 4/4/137 
f 4/4/137 59/59/138 5/5/139 
f 59/59/138 62/62/140 5/5/139 
f 5/5/139 62/62/140 73/71/141 
s 1
f 50/50/142 49/72/143 69/69/144 
f 69/69/144 49/72/143 52/51/90 
f 49/72/143 47/73/145 52/51/90 
f 47/73/145 46/8/146 52/51/90 
f 52/51/90 46/8/146 63/7/91 
s 2
f 46/8/146 9/9/147 63/7/91 
f 63/7/91 9/9/147 74/10/148 
f 9/9/147 12/12/149 74/10/148 
f 74/10/148 12/12/149 75/11/150 
f 75/11/150 12/12/149 76/13/151 
f 12/12/149 14/14/152 76/13/151 
f 14/14/152 16/16/153 76/13/151 
s 1
f 76/13/151 16/16/153 77/15/154 
f 77/15/154 16/16/153 78/18/155 
s 4
f 16/16/153 71/74/156 78/18/155 
f 78/18/155 71/74/156 19/19/157 
s 1
f 40/39/158 39/38/159 78/18/160 
f 78/18/160 39/38/159 77/15/161 
f 39/38/159 38/37/162 77/15/161 
s 2
f 77/15/161 38/37/162 76/13/163 
f 38/37/162 28/28/164 76/13/163 
s 4
f 76/13/163 28/28/164 75/11/165 
f 28/28/164 20/20/20 75/11/165 
f 75/11/165 20/20/20 74/10/166 
f 20/20/20 63/7/167 74/10/166 
f 63/7/167 20/20/20 64/22/168 
f 20/20/20 22/22/22 64/22/168 
f 64/22/168 22/22/22 65/64/169 
f 22/22/22 1/1/170 65/64/169 
f 1/1/170 3/3/171 65/64/169 
f 65/64/169 3/3/171 66/65/172 
f 66/65/172 3/3/171 67/66/173 
s 1
f 3/3/171 5/75/174 67/66/173 
s 2
f 5/75/174 73/71/175 67/66/173 
f 67/66/173 73/71/175 68/62/176 
s 1
f 24/24/177 23/23/178 79/76/179 
f 79/76/179 23/23/178 3/3/3 
f 3/3/3 23/23/178 1/1/1 
f 23/23/178 22/41/59 1/1/1 
f 1/1/1 22/41/59 2/2/2 
f 2/2/2 22/41/59 72/22/180 
f 22/41/59 20/20/27 72/22/180 
f 72/22/180 20/20/27 7/7/181 
f 20/20/27 10/10/182 7/7/181 
f 10/10/182 20/20/27 11/11/183 
f 20/20/27 28/28/29 11/11/183 
f 11/11/183 28/28/29 13/13/184 
f 28/28/29 38/37/185 13/13/184 
f 13/13/184 38/37/185 15/15/186 
s 2
f 38/37/185 39/38/187 15/15/186 
f 39/38/187 40/39/188 15/15/186 
s 4
f 15/15/186 40/39/188 18/18/189 
s 1
f 40/39/188 78/18/190 18/18/189 
f 18/18/189 78/18/190 19/19/191 
# 0 polygons - 160 triangles

