# 3ds Max Wavefront OBJ Exporter v0.97b - (c)2007 guruware
# File Created: 25.11.2019 15:05:30

mtllib noche.mtl

#
# object Box001
#

v  -47.9332 0.0000 16.3910
v  -47.9332 0.0000 -49.1360
v  36.6282 0.0000 -49.1360
v  36.6282 0.0000 16.3910
v  -47.9332 72.7329 16.3910
v  36.6282 72.7329 16.3910
v  36.6282 72.7329 -49.1360
v  -47.9332 72.7329 -49.1360
# 8 vertices

vn -0.5774 -0.5774 0.5774
vn -0.5774 -0.5774 -0.5774
vn 0.5774 -0.5774 -0.5774
vn 0.5774 -0.5774 0.5774
vn -0.5774 0.5774 0.5774
vn 0.5774 0.5774 0.5774
vn 0.5774 0.5774 -0.5774
vn -0.5774 0.5774 -0.5774
# 8 vertex normals

vt 0.0000 1.0000 1.0000
vt 0.0000 0.0000 1.0000
vt 1.0000 0.0000 1.0000
vt 1.0000 1.0000 1.0000
vt 1.0000 1.0000 0.0000
vt 0.0000 1.0000 0.0000
vt 0.0000 0.0000 0.0000
vt 1.0000 0.0000 0.0000
# 8 texture coords

o Box001
g Box001
usemtl 02___Default
s 2
f 1/1/1 2/2/2 3/3/3 4/4/4 
s 4
f 5/5/5 6/6/6 7/7/7 8/8/8 
s 8
f 1/4/1 4/1/4 6/2/6 5/3/5 
s 16
f 4/5/4 3/6/3 7/7/7 6/8/6 
s 32
f 3/5/3 2/6/2 8/7/8 7/8/7 
s 64
f 2/4/2 1/1/1 5/2/5 8/3/8 
# 6 polygons

