# 3ds Max Wavefront OBJ Exporter v0.97b - (c)2007 guruware
# File Created: 05.11.2019 10:47:23

mtllib muro2.mtl

#
# object Plane001
#

v  -88.7602 44.2992 0.0169
v  -88.7602 32.9322 0.0382
v  -44.1679 32.9322 0.0382
v  -44.1679 44.2992 0.0169
v  0.4244 32.9322 0.0382
v  0.4244 44.2992 0.0169
v  45.0167 32.9322 0.0382
v  45.0167 44.2992 0.0169
v  89.6090 32.9322 0.0382
v  89.6090 44.2992 0.0169
v  -88.7602 55.6662 -0.0044
v  -44.1679 55.6662 -0.0044
v  0.4244 55.6662 -0.0044
v  45.0167 55.6662 -0.0044
v  89.6090 55.6662 -0.0044
v  -88.7602 67.0332 -0.0257
v  -44.1679 67.0332 -0.0257
v  0.4244 67.0332 -0.0257
v  45.0167 67.0332 -0.0257
v  89.6090 67.0332 -0.0257
v  -88.7602 78.4002 -0.0470
v  -44.1679 78.4002 -0.0470
v  0.4244 78.4002 -0.0470
v  45.0167 78.4002 -0.0470
v  89.6090 78.4002 -0.0470
# 25 vertices

vn 0.0000 0.0019 1.0000
# 1 vertex normals

vt 0.0000 0.2500 0.5000
vt 0.0000 0.0000 0.5000
vt 0.2500 0.0000 0.5000
vt 0.2500 0.2500 0.5000
vt 0.5000 0.0000 0.5000
vt 0.5000 0.2500 0.5000
vt 0.7500 0.0000 0.5000
vt 0.7500 0.2500 0.5000
vt 1.0000 0.0000 0.5000
vt 1.0000 0.2500 0.5000
vt 0.0000 0.5000 0.5000
vt 0.2500 0.5000 0.5000
vt 0.5000 0.5000 0.5000
vt 0.7500 0.5000 0.5000
vt 1.0000 0.5000 0.5000
vt 0.0000 0.7500 0.5000
vt 0.2500 0.7500 0.5000
vt 0.5000 0.7500 0.5000
vt 0.7500 0.7500 0.5000
vt 1.0000 0.7500 0.5000
vt 0.0000 1.0000 0.5000
vt 0.2500 1.0000 0.5000
vt 0.5000 1.0000 0.5000
vt 0.7500 1.0000 0.5000
vt 1.0000 1.0000 0.5000
# 25 texture coords

o Plane001
g Plane001
usemtl 03___Default
s 1
f 1/1/1 2/2/1 3/3/1 4/4/1 
f 4/4/1 3/3/1 5/5/1 6/6/1 
f 6/6/1 5/5/1 7/7/1 8/8/1 
f 8/8/1 7/7/1 9/9/1 10/10/1 
f 11/11/1 1/1/1 4/4/1 12/12/1 
f 12/12/1 4/4/1 6/6/1 13/13/1 
f 13/13/1 6/6/1 8/8/1 14/14/1 
f 14/14/1 8/8/1 10/10/1 15/15/1 
f 16/16/1 11/11/1 12/12/1 17/17/1 
f 17/17/1 12/12/1 13/13/1 18/18/1 
f 18/18/1 13/13/1 14/14/1 19/19/1 
f 19/19/1 14/14/1 15/15/1 20/20/1 
f 21/21/1 16/16/1 17/17/1 22/22/1 
f 22/22/1 17/17/1 18/18/1 23/23/1 
f 23/23/1 18/18/1 19/19/1 24/24/1 
f 24/24/1 19/19/1 20/20/1 25/25/1 
# 16 polygons

#
# object Box001
#

v  -93.1618 0.0000 4.8124
v  -93.1618 0.0000 -5.1876
v  -83.1618 0.0000 -5.1876
v  -83.1618 0.0000 4.8124
v  -93.1618 93.8520 4.8124
v  -83.1618 93.8520 4.8124
v  -83.1618 93.8520 -5.1876
v  -93.1618 93.8520 -5.1876
# 8 vertices

vn -0.5774 -0.5774 0.5774
vn -0.5774 -0.5774 -0.5774
vn 0.5774 -0.5774 -0.5774
vn 0.5774 -0.5774 0.5774
vn -0.5774 0.5774 0.5774
vn 0.5774 0.5774 0.5774
vn 0.5774 0.5774 -0.5774
vn -0.5774 0.5774 -0.5774
# 8 vertex normals

vt 1.0000 0.0000 0.0000
vt 1.0000 1.0000 0.0000
vt 0.0000 1.0000 0.0000
vt 0.0000 0.0000 0.0000
# 4 texture coords

o Box001
g Box001
usemtl 07___Default
s 2
f 26/26/2 27/27/3 28/28/4 29/29/5 
s 4
f 30/29/6 31/26/7 32/27/8 33/28/9 
s 8
f 26/29/2 29/26/5 31/27/7 30/28/6 
s 16
f 29/29/5 28/26/4 32/27/8 31/28/7 
s 32
f 28/29/4 27/26/3 33/27/9 32/28/8 
s 64
f 27/29/3 26/26/2 30/27/6 33/28/9 
# 6 polygons

#
# object Box002
#

v  89.4285 0.0000 3.1259
v  89.4285 0.0000 -3.5012
v  91.5778 0.0000 -3.5012
v  91.5778 0.0000 3.1259
v  89.4285 93.8520 3.1259
v  91.5778 93.8520 3.1259
v  91.5778 93.8520 -3.5012
v  89.4285 93.8520 -3.5012
# 8 vertices

vn -0.5774 -0.5774 0.5774
vn -0.5774 -0.5774 -0.5774
vn 0.5774 -0.5774 -0.5774
vn 0.5774 -0.5774 0.5774
vn -0.5774 0.5774 0.5774
vn 0.5774 0.5774 0.5774
vn 0.5774 0.5774 -0.5774
vn -0.5774 0.5774 -0.5774
# 8 vertex normals

vt 1.0000 0.0000 0.0000
vt 1.0000 1.0000 0.0000
vt 0.0000 1.0000 0.0000
vt 0.0000 0.0000 0.0000
# 4 texture coords

o Box002
g Box002
usemtl 07___Default
s 2
f 34/30/10 35/31/11 36/32/12 37/33/13 
s 4
f 38/33/14 39/30/15 40/31/16 41/32/17 
s 8
f 34/33/10 37/30/13 39/31/15 38/32/14 
s 16
f 37/33/13 36/30/12 40/31/16 39/32/15 
s 32
f 36/33/12 35/30/11 41/31/17 40/32/16 
s 64
f 35/33/11 34/30/10 38/31/14 41/32/17 
# 6 polygons

#
# object Box003
#

v  22.1903 0.0000 6.6634
v  22.1903 0.0000 -7.0386
v  36.6626 0.0000 -7.0386
v  36.6626 0.0000 6.6634
v  22.1903 89.9647 6.6634
v  36.6626 89.9647 6.6634
v  36.6626 89.9647 -7.0386
v  22.1903 89.9647 -7.0386
# 8 vertices

vn -0.5774 -0.5774 0.5774
vn -0.5774 -0.5774 -0.5774
vn 0.5774 -0.5774 -0.5774
vn 0.5774 -0.5774 0.5774
vn -0.5774 0.5774 0.5774
vn 0.5774 0.5774 0.5774
vn 0.5774 0.5774 -0.5774
vn -0.5774 0.5774 -0.5774
# 8 vertex normals

vt 1.0000 0.0000 0.0000
vt 1.0000 1.0000 0.0000
vt 0.0000 1.0000 0.0000
vt 0.0000 0.0000 0.0000
# 4 texture coords

o Box003
g Box003
usemtl 07___Default
s 2
f 42/34/18 43/35/19 44/36/20 45/37/21 
s 4
f 46/37/22 47/34/23 48/35/24 49/36/25 
s 8
f 42/37/18 45/34/21 47/35/23 46/36/22 
s 16
f 45/37/21 44/34/20 48/35/24 47/36/23 
s 32
f 44/37/20 43/34/19 49/35/25 48/36/24 
s 64
f 43/37/19 42/34/18 46/35/22 49/36/25 
# 6 polygons

#
# object Box004
#

v  -60.5140 32.4452 3.1259
v  -60.5140 32.4452 -3.5012
v  -58.3647 32.4452 -3.5012
v  -58.3647 32.4452 3.1259
v  -60.5140 92.1524 3.1259
v  -58.3647 92.1524 3.1259
v  -58.3647 92.1524 -3.5012
v  -60.5140 92.1524 -3.5012
# 8 vertices

vn -0.5774 -0.5774 0.5774
vn -0.5774 -0.5774 -0.5774
vn 0.5774 -0.5774 -0.5774
vn 0.5774 -0.5774 0.5774
vn -0.5774 0.5774 0.5774
vn 0.5774 0.5774 0.5774
vn 0.5774 0.5774 -0.5774
vn -0.5774 0.5774 -0.5774
# 8 vertex normals

vt 1.0000 0.0000 0.0000
vt 1.0000 1.0000 0.0000
vt 0.0000 1.0000 0.0000
vt 0.0000 0.0000 0.0000
# 4 texture coords

o Box004
g Box004
usemtl 07___Default
s 2
f 50/38/26 51/39/27 52/40/28 53/41/29 
s 4
f 54/41/30 55/38/31 56/39/32 57/40/33 
s 8
f 50/41/26 53/38/29 55/39/31 54/40/30 
s 16
f 53/41/29 52/38/28 56/39/32 55/40/31 
s 32
f 52/41/28 51/38/27 57/39/33 56/40/32 
s 64
f 51/41/27 50/38/26 54/39/30 57/40/33 
# 6 polygons

#
# object Box005
#

v  0.5351 33.5268 3.1259
v  0.5351 33.5268 -3.5012
v  2.6845 33.5268 -3.5012
v  2.6845 33.5268 3.1259
v  0.5351 93.2340 3.1259
v  2.6845 93.2340 3.1259
v  2.6845 93.2340 -3.5012
v  0.5351 93.2340 -3.5012
# 8 vertices

vn -0.5774 -0.5774 0.5774
vn -0.5774 -0.5774 -0.5774
vn 0.5774 -0.5774 -0.5774
vn 0.5774 -0.5774 0.5774
vn -0.5774 0.5774 0.5774
vn 0.5774 0.5774 0.5774
vn 0.5774 0.5774 -0.5774
vn -0.5774 0.5774 -0.5774
# 8 vertex normals

vt 1.0000 0.0000 0.0000
vt 1.0000 1.0000 0.0000
vt 0.0000 1.0000 0.0000
vt 0.0000 0.0000 0.0000
# 4 texture coords

o Box005
g Box005
usemtl 07___Default
s 2
f 58/42/34 59/43/35 60/44/36 61/45/37 
s 4
f 62/45/38 63/42/39 64/43/40 65/44/41 
s 8
f 58/45/34 61/42/37 63/43/39 62/44/38 
s 16
f 61/45/37 60/42/36 64/43/40 63/44/39 
s 32
f 60/45/36 59/42/35 65/43/41 64/44/40 
s 64
f 59/45/35 58/42/34 62/43/38 65/44/41 
# 6 polygons

#
# object Box007
#

v  -88.7099 30.6813 -2.9849
v  -88.7099 30.6813 -8.8696
v  91.4059 30.6813 -8.8696
v  91.4059 30.6813 -2.9849
v  -88.7099 36.6821 -2.9849
v  91.4059 36.6821 -2.9849
v  91.4059 36.6821 -8.8696
v  -88.7099 36.6821 -8.8696
# 8 vertices

vn -0.5774 -0.5774 0.5774
vn -0.5774 -0.5774 -0.5774
vn 0.5774 -0.5774 -0.5774
vn 0.5774 -0.5774 0.5774
vn -0.5774 0.5774 0.5774
vn 0.5774 0.5774 0.5774
vn 0.5774 0.5774 -0.5774
vn -0.5774 0.5774 -0.5774
# 8 vertex normals

vt 1.0000 0.0000 0.0000
vt 1.0000 1.0000 0.0000
vt 0.0000 1.0000 0.0000
vt 0.0000 0.0000 0.0000
# 4 texture coords

o Box007
g Box007
usemtl 07___Default
s 2
f 66/46/42 67/47/43 68/48/44 69/49/45 
s 4
f 70/49/46 71/46/47 72/47/48 73/48/49 
s 8
f 66/49/42 69/46/45 71/47/47 70/48/46 
s 16
f 69/49/45 68/46/44 72/47/48 71/48/47 
s 32
f 68/49/44 67/46/43 73/47/49 72/48/48 
s 64
f 67/49/43 66/46/42 70/47/46 73/48/49 
# 6 polygons

#
# object Plane002
#

v  -89.6521 7.2240 19.2681
v  -89.6521 -0.5697 19.2827
v  -44.6139 -0.5697 19.2827
v  -44.6139 7.2240 19.2681
v  0.4244 -0.5697 19.2827
v  0.4244 7.2240 19.2681
v  45.4626 -0.5697 19.2827
v  45.4626 7.2240 19.2681
v  90.5008 -0.5697 19.2827
v  90.5008 7.2240 19.2681
v  -89.6521 15.0177 19.2535
v  -44.6139 15.0177 19.2535
v  0.4244 15.0177 19.2535
v  45.4626 15.0177 19.2535
v  90.5008 15.0177 19.2535
v  -89.6521 22.8115 19.2388
v  -44.6139 22.8115 19.2388
v  0.4244 22.8115 19.2388
v  45.4626 22.8115 19.2388
v  90.5008 22.8115 19.2388
v  -89.6521 30.6052 19.2242
v  -44.6139 30.6052 19.2242
v  0.4244 30.6052 19.2242
v  45.4626 30.6052 19.2242
v  90.5008 30.6052 19.2242
# 25 vertices

vn 0.0000 0.0019 1.0000
# 1 vertex normals

vt 0.0000 7.7226 0.0000
vt 0.0000 0.0000 0.0000
vt 44.6268 0.0000 0.0000
vt 44.6268 7.7226 0.0000
vt 89.2537 0.0000 0.0000
vt 89.2537 7.7226 0.0000
vt 133.8805 0.0000 0.0000
vt 133.8805 7.7226 0.0000
vt 178.5073 0.0000 0.0000
vt 178.5073 7.7226 0.0000
vt 0.0000 15.4451 0.0000
vt 44.6268 15.4451 0.0000
vt 89.2537 15.4451 0.0000
vt 133.8805 15.4451 0.0000
vt 178.5073 15.4451 0.0000
vt 0.0000 23.1677 0.0000
vt 44.6268 23.1677 0.0000
vt 89.2537 23.1677 0.0000
vt 133.8805 23.1677 0.0000
vt 178.5073 23.1677 0.0000
vt 0.0000 30.8902 0.0000
vt 44.6268 30.8902 0.0000
vt 89.2537 30.8902 0.0000
vt 133.8805 30.8902 0.0000
vt 178.5073 30.8902 0.0000
# 25 texture coords

o Plane002
g Plane002
usemtl 08___Default
s 1
f 74/50/50 75/51/50 76/52/50 77/53/50 
f 77/53/50 76/52/50 78/54/50 79/55/50 
f 79/55/50 78/54/50 80/56/50 81/57/50 
f 81/57/50 80/56/50 82/58/50 83/59/50 
f 84/60/50 74/50/50 77/53/50 85/61/50 
f 85/61/50 77/53/50 79/55/50 86/62/50 
f 86/62/50 79/55/50 81/57/50 87/63/50 
f 87/63/50 81/57/50 83/59/50 88/64/50 
f 89/65/50 84/60/50 85/61/50 90/66/50 
f 90/66/50 85/61/50 86/62/50 91/67/50 
f 91/67/50 86/62/50 87/63/50 92/68/50 
f 92/68/50 87/63/50 88/64/50 93/69/50 
f 94/70/50 89/65/50 90/66/50 95/71/50 
f 95/71/50 90/66/50 91/67/50 96/72/50 
f 96/72/50 91/67/50 92/68/50 97/73/50 
f 97/73/50 92/68/50 93/69/50 98/74/50 
# 16 polygons

#
# object Box008
#

v  -93.9536 90.7473 3.8746
v  -93.9536 90.7473 -10.8171
v  91.5642 90.7473 -10.8171
v  91.5642 90.7473 3.8746
v  -93.9536 102.6573 3.8746
v  91.5642 102.6573 3.8746
v  91.5642 102.6573 -10.8171
v  -93.9536 102.6573 -10.8171
# 8 vertices

vn -0.5774 -0.5774 0.5774
vn -0.5774 -0.5774 -0.5774
vn 0.5774 -0.5774 -0.5774
vn 0.5774 -0.5774 0.5774
vn -0.5774 0.5774 0.5774
vn 0.5774 0.5774 0.5774
vn 0.5774 0.5774 -0.5774
vn -0.5774 0.5774 -0.5774
# 8 vertex normals

vt 1.0000 0.0000 0.0000
vt 1.0000 1.0000 0.0000
vt 0.0000 1.0000 0.0000
vt 0.0000 0.0000 0.0000
# 4 texture coords

o Box008
g Box008
usemtl 07___Default
s 2
f 99/75/51 100/76/52 101/77/53 102/78/54 
s 4
f 103/78/55 104/75/56 105/76/57 106/77/58 
s 8
f 99/78/51 102/75/54 104/76/56 103/77/55 
s 16
f 102/78/54 101/75/53 105/76/57 104/77/56 
s 32
f 101/78/53 100/75/52 106/76/58 105/77/57 
s 64
f 100/78/52 99/75/51 103/76/55 106/77/58 
# 6 polygons

#
# object Box009
#

v  -88.7099 76.5431 2.4369
v  -88.7099 76.5431 -3.4477
v  91.4059 76.5431 -3.4477
v  91.4059 76.5431 2.4369
v  -88.7099 80.0148 2.4369
v  91.4059 80.0148 2.4369
v  91.4059 80.0148 -3.4477
v  -88.7099 80.0148 -3.4477
# 8 vertices

vn -0.5774 -0.5774 0.5774
vn -0.5774 -0.5774 -0.5774
vn 0.5774 -0.5774 -0.5774
vn 0.5774 -0.5774 0.5774
vn -0.5774 0.5774 0.5774
vn 0.5774 0.5774 0.5774
vn 0.5774 0.5774 -0.5774
vn -0.5774 0.5774 -0.5774
# 8 vertex normals

vt 1.0000 0.0000 0.0000
vt 1.0000 1.0000 0.0000
vt 0.0000 1.0000 0.0000
vt 0.0000 0.0000 0.0000
# 4 texture coords

o Box009
g Box009
usemtl 07___Default
s 2
f 107/79/59 108/80/60 109/81/61 110/82/62 
s 4
f 111/82/63 112/79/64 113/80/65 114/81/66 
s 8
f 107/82/59 110/79/62 112/80/64 111/81/63 
s 16
f 110/82/62 109/79/61 113/80/65 112/81/64 
s 32
f 109/82/61 108/79/60 114/80/66 113/81/65 
s 64
f 108/82/60 107/79/59 111/80/63 114/81/66 
# 6 polygons

#
# object Box010
#

v  -30.2555 33.4988 3.1259
v  -30.2555 33.4988 -3.5012
v  -28.1062 33.4988 -3.5012
v  -28.1062 33.4988 3.1259
v  -30.2555 92.6030 3.1259
v  -28.1062 92.6030 3.1259
v  -28.1062 92.6030 -3.5012
v  -30.2555 92.6030 -3.5012
# 8 vertices

vn -0.5774 -0.5774 0.5774
vn -0.5774 -0.5774 -0.5774
vn 0.5774 -0.5774 -0.5774
vn 0.5774 -0.5774 0.5774
vn -0.5774 0.5774 0.5774
vn 0.5774 0.5774 0.5774
vn 0.5774 0.5774 -0.5774
vn -0.5774 0.5774 -0.5774
# 8 vertex normals

vt 1.0000 0.0000 0.0000
vt 1.0000 1.0000 0.0000
vt 0.0000 1.0000 0.0000
vt 0.0000 0.0000 0.0000
# 4 texture coords

o Box010
g Box010
usemtl 07___Default
s 2
f 115/83/67 116/84/68 117/85/69 118/86/70 
s 4
f 119/86/71 120/83/72 121/84/73 122/85/74 
s 8
f 115/86/67 118/83/70 120/84/72 119/85/71 
s 16
f 118/86/70 117/83/69 121/84/73 120/85/72 
s 32
f 117/86/69 116/83/68 122/84/74 121/85/73 
s 64
f 116/86/68 115/83/67 119/84/71 122/85/74 
# 6 polygons

#
# object Box011
#

v  59.3837 34.9757 3.1259
v  59.3837 34.9757 -3.5012
v  61.5331 34.9757 -3.5012
v  61.5331 34.9757 3.1259
v  59.3837 92.9096 3.1259
v  61.5331 92.9096 3.1259
v  61.5331 92.9096 -3.5012
v  59.3837 92.9096 -3.5012
# 8 vertices

vn -0.5774 -0.5774 0.5774
vn -0.5774 -0.5774 -0.5774
vn 0.5774 -0.5774 -0.5774
vn 0.5774 -0.5774 0.5774
vn -0.5774 0.5774 0.5774
vn 0.5774 0.5774 0.5774
vn 0.5774 0.5774 -0.5774
vn -0.5774 0.5774 -0.5774
# 8 vertex normals

vt 1.0000 0.0000 0.0000
vt 1.0000 1.0000 0.0000
vt 0.0000 1.0000 0.0000
vt 0.0000 0.0000 0.0000
# 4 texture coords

o Box011
g Box011
usemtl 07___Default
s 2
f 123/87/75 124/88/76 125/89/77 126/90/78 
s 4
f 127/90/79 128/87/80 129/88/81 130/89/82 
s 8
f 123/90/75 126/87/78 128/88/80 127/89/79 
s 16
f 126/90/78 125/87/77 129/88/81 128/89/80 
s 32
f 125/90/77 124/87/76 130/88/82 129/89/81 
s 64
f 124/90/76 123/87/75 127/88/79 130/89/82 
# 6 polygons

#
# object Plane003
#

v  -87.8507 31.4927 3.0981
v  -87.8507 31.4821 -2.5410
v  -43.7132 31.4821 -2.5410
v  -43.7132 31.4927 3.0981
v  0.4244 31.4821 -2.5410
v  0.4244 31.4927 3.0981
v  44.5619 31.4821 -2.5410
v  44.5619 31.4927 3.0981
v  88.6995 31.4821 -2.5410
v  88.6995 31.4927 3.0981
v  -87.8507 31.5033 8.7371
v  -43.7132 31.5033 8.7371
v  0.4244 31.5033 8.7371
v  44.5619 31.5033 8.7371
v  88.6995 31.5033 8.7371
v  -87.8507 31.5138 14.3761
v  -43.7132 31.5138 14.3761
v  0.4244 31.5138 14.3761
v  44.5619 31.5138 14.3761
v  88.6995 31.5138 14.3761
v  -87.8507 31.5244 20.0151
v  -43.7132 31.5244 20.0151
v  0.4244 31.5244 20.0151
v  44.5619 31.5244 20.0151
v  88.6995 31.5244 20.0151
# 25 vertices

vn 0.0000 -1.0000 0.0019
# 1 vertex normals

vt 0.0000 5.5875 0.0000
vt 0.0000 0.0000 0.0000
vt 43.7344 0.0000 0.0000
vt 43.7344 5.5875 0.0000
vt 87.4688 0.0000 0.0000
vt 87.4688 5.5875 0.0000
vt 131.2032 0.0000 0.0000
vt 131.2032 5.5875 0.0000
vt 174.9376 0.0000 0.0000
vt 174.9376 5.5875 0.0000
vt 0.0000 11.1750 0.0000
vt 43.7344 11.1750 0.0000
vt 87.4688 11.1750 0.0000
vt 131.2032 11.1750 0.0000
vt 174.9376 11.1750 0.0000
vt 0.0000 16.7625 0.0000
vt 43.7344 16.7625 0.0000
vt 87.4688 16.7625 0.0000
vt 131.2032 16.7625 0.0000
vt 174.9376 16.7625 0.0000
vt 0.0000 22.3501 0.0000
vt 43.7344 22.3501 0.0000
vt 87.4688 22.3501 0.0000
vt 131.2032 22.3501 0.0000
vt 174.9376 22.3501 0.0000
# 25 texture coords

o Plane003
g Plane003
usemtl 08___Default
s 1
f 131/91/83 132/92/83 133/93/83 134/94/83 
f 134/94/83 133/93/83 135/95/83 136/96/83 
f 136/96/83 135/95/83 137/97/83 138/98/83 
f 138/98/83 137/97/83 139/99/83 140/100/83 
f 141/101/83 131/91/83 134/94/83 142/102/83 
f 142/102/83 134/94/83 136/96/83 143/103/83 
f 143/103/83 136/96/83 138/98/83 144/104/83 
f 144/104/83 138/98/83 140/100/83 145/105/83 
f 146/106/83 141/101/83 142/102/83 147/107/83 
f 147/107/83 142/102/83 143/103/83 148/108/83 
f 148/108/83 143/103/83 144/104/83 149/109/83 
f 149/109/83 144/104/83 145/105/83 150/110/83 
f 151/111/83 146/106/83 147/107/83 152/112/83 
f 152/112/83 147/107/83 148/108/83 153/113/83 
f 153/113/83 148/108/83 149/109/83 154/114/83 
f 154/114/83 149/109/83 150/110/83 155/115/83 
# 16 polygons

#
# object Plane005
#

v  -88.1068 7.6075 18.9150
v  -88.0911 -0.7484 18.9150
v  -88.0911 -0.7484 14.5403
v  -88.1068 7.6075 14.5403
v  -88.0911 -0.7484 10.1656
v  -88.1068 7.6075 10.1656
v  -88.0911 -0.7484 5.7910
v  -88.1068 7.6075 5.7910
v  -88.0911 -0.7484 1.4163
v  -88.1068 7.6075 1.4163
v  -88.1224 15.9634 18.9150
v  -88.1224 15.9634 14.5403
v  -88.1224 15.9634 10.1656
v  -88.1224 15.9634 5.7910
v  -88.1224 15.9634 1.4163
v  -88.1381 24.3194 18.9150
v  -88.1381 24.3194 14.5403
v  -88.1381 24.3194 10.1656
v  -88.1381 24.3194 5.7910
v  -88.1381 24.3194 1.4163
v  -88.1538 32.6753 18.9150
v  -88.1538 32.6753 14.5403
v  -88.1538 32.6753 10.1656
v  -88.1538 32.6753 5.7910
v  -88.1538 32.6753 1.4163
# 25 vertices

vn 1.0000 0.0019 -0.0000
# 1 vertex normals

vt 0.0000 8.2796 0.0000
vt 0.0000 0.0000 0.0000
vt 4.3347 0.0000 0.0000
vt 4.3347 8.2796 0.0000
vt 8.6694 0.0000 0.0000
vt 8.6694 8.2796 0.0000
vt 13.0042 0.0000 0.0000
vt 13.0042 8.2796 0.0000
vt 17.3389 0.0000 0.0000
vt 17.3389 8.2796 0.0000
vt 0.0000 16.5592 0.0000
vt 4.3347 16.5592 0.0000
vt 8.6694 16.5592 0.0000
vt 13.0042 16.5592 0.0000
vt 17.3389 16.5592 0.0000
vt 0.0000 24.8389 0.0000
vt 4.3347 24.8389 0.0000
vt 8.6694 24.8389 0.0000
vt 13.0042 24.8389 0.0000
vt 17.3389 24.8389 0.0000
vt 0.0000 33.1185 0.0000
vt 4.3347 33.1185 0.0000
vt 8.6694 33.1185 0.0000
vt 13.0042 33.1185 0.0000
vt 17.3389 33.1185 0.0000
# 25 texture coords

o Plane005
g Plane005
usemtl 08___Default
s 1
f 156/116/84 157/117/84 158/118/84 159/119/84 
f 159/119/84 158/118/84 160/120/84 161/121/84 
f 161/121/84 160/120/84 162/122/84 163/123/84 
f 163/123/84 162/122/84 164/124/84 165/125/84 
f 166/126/84 156/116/84 159/119/84 167/127/84 
f 167/127/84 159/119/84 161/121/84 168/128/84 
f 168/128/84 161/121/84 163/123/84 169/129/84 
f 169/129/84 163/123/84 165/125/84 170/130/84 
f 171/131/84 166/126/84 167/127/84 172/132/84 
f 172/132/84 167/127/84 168/128/84 173/133/84 
f 173/133/84 168/128/84 169/129/84 174/134/84 
f 174/134/84 169/129/84 170/130/84 175/135/84 
f 176/136/84 171/131/84 172/132/84 177/137/84 
f 177/137/84 172/132/84 173/133/84 178/138/84 
f 178/138/84 173/133/84 174/134/84 179/139/84 
f 179/139/84 174/134/84 175/135/84 180/140/84 
# 16 polygons

#
# object Plane006
#

v  89.8452 7.3543 18.9150
v  89.8613 -1.2548 18.9150
v  89.8613 -1.2548 14.5403
v  89.8452 7.3543 14.5403
v  89.8613 -1.2548 10.1656
v  89.8452 7.3543 10.1656
v  89.8613 -1.2548 5.7910
v  89.8452 7.3543 5.7910
v  89.8613 -1.2548 1.4163
v  89.8452 7.3543 1.4163
v  89.8290 15.9634 18.9150
v  89.8290 15.9634 14.5403
v  89.8290 15.9634 10.1656
v  89.8290 15.9634 5.7910
v  89.8290 15.9634 1.4163
v  89.8129 24.5726 18.9150
v  89.8129 24.5726 14.5403
v  89.8129 24.5726 10.1656
v  89.8129 24.5726 5.7910
v  89.8129 24.5726 1.4163
v  89.7968 33.1817 18.9150
v  89.7968 33.1817 14.5403
v  89.7968 33.1817 10.1656
v  89.7968 33.1817 5.7910
v  89.7968 33.1817 1.4163
# 25 vertices

vn 1.0000 0.0019 -0.0000
# 1 vertex normals

vt 0.0000 8.5305 0.0000
vt 0.0000 0.0000 0.0000
vt 4.3347 0.0000 0.0000
vt 4.3347 8.5305 0.0000
vt 8.6694 0.0000 0.0000
vt 8.6694 8.5305 0.0000
vt 13.0042 0.0000 0.0000
vt 13.0042 8.5305 0.0000
vt 17.3389 0.0000 0.0000
vt 17.3389 8.5305 0.0000
vt 0.0000 17.0610 0.0000
vt 4.3347 17.0610 0.0000
vt 8.6694 17.0610 0.0000
vt 13.0042 17.0610 0.0000
vt 17.3389 17.0610 0.0000
vt 0.0000 25.5915 0.0000
vt 4.3347 25.5915 0.0000
vt 8.6694 25.5915 0.0000
vt 13.0042 25.5915 0.0000
vt 17.3389 25.5915 0.0000
vt 0.0000 34.1220 0.0000
vt 4.3347 34.1220 0.0000
vt 8.6694 34.1220 0.0000
vt 13.0042 34.1220 0.0000
vt 17.3389 34.1220 0.0000
# 25 texture coords

o Plane006
g Plane006
usemtl 08___Default
s 1
f 181/141/85 182/142/85 183/143/85 184/144/85 
f 184/144/85 183/143/85 185/145/85 186/146/85 
f 186/146/85 185/145/85 187/147/85 188/148/85 
f 188/148/85 187/147/85 189/149/85 190/150/85 
f 191/151/85 181/141/85 184/144/85 192/152/85 
f 192/152/85 184/144/85 186/146/85 193/153/85 
f 193/153/85 186/146/85 188/148/85 194/154/85 
f 194/154/85 188/148/85 190/150/85 195/155/85 
f 196/156/85 191/151/85 192/152/85 197/157/85 
f 197/157/85 192/152/85 193/153/85 198/158/85 
f 198/158/85 193/153/85 194/154/85 199/159/85 
f 199/159/85 194/154/85 195/155/85 200/160/85 
f 201/161/85 196/156/85 197/157/85 202/162/85 
f 202/162/85 197/157/85 198/158/85 203/163/85 
f 203/163/85 198/158/85 199/159/85 204/164/85 
f 204/164/85 199/159/85 200/160/85 205/165/85 
# 16 polygons

#
# object Plane007
#

v  -88.7602 44.4953 -10.0938
v  -88.7602 29.0211 -10.0648
v  -44.1679 29.0211 -10.0648
v  -44.1679 44.4953 -10.0938
v  0.4244 29.0211 -10.0648
v  0.4244 44.4953 -10.0938
v  45.0167 29.0211 -10.0648
v  45.0167 44.4953 -10.0938
v  89.6090 29.0211 -10.0648
v  89.6090 44.4953 -10.0938
v  -88.7602 59.9695 -10.1228
v  -44.1679 59.9695 -10.1228
v  0.4244 59.9695 -10.1228
v  45.0167 59.9695 -10.1228
v  89.6090 59.9695 -10.1228
v  -88.7602 75.4437 -10.1518
v  -44.1679 75.4437 -10.1518
v  0.4244 75.4437 -10.1518
v  45.0167 75.4437 -10.1518
v  89.6090 75.4437 -10.1518
v  -88.7602 90.9178 -10.1808
v  -44.1679 90.9178 -10.1808
v  0.4244 90.9178 -10.1808
v  45.0167 90.9178 -10.1808
v  89.6090 90.9178 -10.1808
# 25 vertices

vn 0.0000 0.0019 1.0000
# 1 vertex normals

vt -0.6089 0.3076 0.5000
vt -0.6089 0.1152 0.5000
vt -0.0545 0.1152 0.5000
vt -0.0545 0.3076 0.5000
vt 0.5000 0.1152 0.5000
vt 0.5000 0.3076 0.5000
vt 1.0545 0.1152 0.5000
vt 1.0545 0.3076 0.5000
vt 1.6089 0.1152 0.5000
vt 1.6089 0.3076 0.5000
vt -0.6089 0.5000 0.5000
vt -0.0545 0.5000 0.5000
vt 0.5000 0.5000 0.5000
vt 1.0545 0.5000 0.5000
vt 1.6089 0.5000 0.5000
vt -0.6089 0.6924 0.5000
vt -0.0545 0.6924 0.5000
vt 0.5000 0.6924 0.5000
vt 1.0545 0.6924 0.5000
vt 1.6089 0.6924 0.5000
vt -0.6089 0.8848 0.5000
vt -0.0545 0.8848 0.5000
vt 0.5000 0.8848 0.5000
vt 1.0545 0.8848 0.5000
vt 1.6089 0.8848 0.5000
# 25 texture coords

o Plane007
g Plane007
usemtl 09___Default
s 1
f 206/166/86 207/167/86 208/168/86 209/169/86 
f 209/169/86 208/168/86 210/170/86 211/171/86 
f 211/171/86 210/170/86 212/172/86 213/173/86 
f 213/173/86 212/172/86 214/174/86 215/175/86 
f 216/176/86 206/166/86 209/169/86 217/177/86 
f 217/177/86 209/169/86 211/171/86 218/178/86 
f 218/178/86 211/171/86 213/173/86 219/179/86 
f 219/179/86 213/173/86 215/175/86 220/180/86 
f 221/181/86 216/176/86 217/177/86 222/182/86 
f 222/182/86 217/177/86 218/178/86 223/183/86 
f 223/183/86 218/178/86 219/179/86 224/184/86 
f 224/184/86 219/179/86 220/180/86 225/185/86 
f 226/186/86 221/181/86 222/182/86 227/187/86 
f 227/187/86 222/182/86 223/183/86 228/188/86 
f 228/188/86 223/183/86 224/184/86 229/189/86 
f 229/189/86 224/184/86 225/185/86 230/190/86 
# 16 polygons

